<svg xmlns="http://www.w3.org/2000/svg" viewBox="0 0 64 64"><title>Artboard-9</title><g id="Book-2" data-name="Book"><path d="M7,18H1V55H63V18H7Z" style="fill:#337fef"/><polygon points="18 58 14 61 14 49 22 49 22 61 18 58" style="fill:#185bd1"/><path d="M35,18H32V55H63V18H35Z" style="fill:#185bd1"/><path d="M57,49H36a4,4,0,0,0-4,4V17a4,4,0,0,1,4-4H57Z" style="fill:#337fef"/><path d="M21,13h7a4,4,0,0,1,4,4V53a4,4,0,0,0-4-4H7V13H21Z" style="fill:#48acff"/><rect x="36" y="17" width="17" height="12" style="fill:#fcd354"/><polygon points="46 29 42 25 46 21 53 28 53 29 46 29" style="fill:#28bf7e"/><path d="M11,23.7349V6.1777a3.1243,3.1243,0,0,1,2.6982-3.1631Q13.8506,3,14,3a3.0033,3.0033,0,0,1,3,3V23.7349L14,29Z" style="fill:#337fef"/><path d="M14,3q-.1494,0-.3018.0146A3.1243,3.1243,0,0,0,11,6.1777V8h6V6A3.0033,3.0033,0,0,0,14,3Z" style="fill:#185bd1"/><polygon points="14 29 16.849 24 11.151 24 14 29" style="fill:#185bd1"/><polygon points="36 29 36 27 40 23 46 29 36 29" style="fill:#3de29f"/><path d="M63,17H58V13a1,1,0,0,0-1-1H36a4.9813,4.9813,0,0,0-4,2.0309A4.9813,4.9813,0,0,0,28,12H21a1,1,0,0,0,0,2h7a3.0033,3.0033,0,0,1,3,3V49.0024A4.9741,4.9741,0,0,0,28,48H8V14h2V24a1.2308,1.2308,0,0,0,.1426.5146l3,5a1,1,0,0,0,1.7148,0l3-5A1.24,1.24,0,0,0,18,24V6a4,4,0,0,0-8,0v6H7a1,1,0,0,0-1,1v4H1a1,1,0,0,0-1,1V55a1,1,0,0,0,1,1h9a1,1,0,0,0,0-2H2V19H6V49a1,1,0,0,0,1,1h6V61a1,1,0,0,0,1.6.8L18,59.25l3.4,2.55A1,1,0,0,0,23,61V50h5a3.0033,3.0033,0,0,1,3,3v1H26a1,1,0,0,0,0,2H63a1,1,0,0,0,1-1V18A1,1,0,0,0,63,17ZM16,23H12V9h4Zm-2,4.0562L12.7662,25h2.4676ZM14,4a2.0023,2.0023,0,0,1,2,2V7H12V6A2.0023,2.0023,0,0,1,14,4Zm7,55-2.4-1.8a.998.998,0,0,0-1.1992,0L15,59V50h6ZM36,14H56V48H36a4.9741,4.9741,0,0,0-3,1.0024V17A3.0033,3.0033,0,0,1,36,14ZM62,54H33V53a3.0033,3.0033,0,0,1,3-3H57a1,1,0,0,0,1-1V19h4Z" style="fill:#231e23"/><path d="M36,30H53a1,1,0,0,0,1-1V17a1,1,0,0,0-1-1H36a1,1,0,0,0-1,1V29A1,1,0,0,0,36,30Zm1-2.5859,3-3L43.5859,28H37ZM46.4141,28l-3-3L46,22.4141,51.5859,28ZM52,18v7.5859L46.707,20.293a.9994.9994,0,0,0-1.414,0L42,23.5859,40.707,22.293a.9994.9994,0,0,0-1.414,0L37,24.5859V18Z" style="fill:#231e23"/><path d="M36,34H53a1,1,0,0,0,0-2H36a1,1,0,0,0,0,2Z" style="fill:#231e23"/><path d="M36,38H53a1,1,0,0,0,0-2H36a1,1,0,0,0,0,2Z" style="fill:#231e23"/><path d="M36,42H53a1,1,0,0,0,0-2H36a1,1,0,0,0,0,2Z" style="fill:#231e23"/><path d="M36,46H53a1,1,0,0,0,0-2H36a1,1,0,0,0,0,2Z" style="fill:#231e23"/><path d="M28,32H11a1,1,0,0,0,0,2H28a1,1,0,0,0,0-2Z" style="fill:#231e23"/><path d="M19,30h9a1,1,0,0,0,0-2H19a1,1,0,0,0,0,2Z" style="fill:#231e23"/><path d="M21,26h7a1,1,0,0,0,0-2H21a1,1,0,0,0,0,2Z" style="fill:#231e23"/><path d="M21,22h7a1,1,0,0,0,0-2H21a1,1,0,0,0,0,2Z" style="fill:#231e23"/><path d="M21,18h7a1,1,0,0,0,0-2H21a1,1,0,0,0,0,2Z" style="fill:#231e23"/><path d="M28,36H11a1,1,0,0,0,0,2H28a1,1,0,0,0,0-2Z" style="fill:#231e23"/><path d="M28,40H11a1,1,0,0,0,0,2H28a1,1,0,0,0,0-2Z" style="fill:#231e23"/><path d="M28,44H11a1,1,0,0,0,0,2H28a1,1,0,0,0,0-2Z" style="fill:#231e23"/><circle cx="42" cy="20" r="1" style="fill:#231e23"/></g></svg>